<svg width="35" height="44" viewBox="0 0 35 44" fill="none" xmlns="http://www.w3.org/2000/svg">
<path d="M8.64298 33.3544C6.11713 34.7144 3.27285 39.8579 2.16644 42.2596C2.32836 42.5834 10.1002 42.2191 13.9052 41.1667C17.7101 40.1143 20.7916 38.8326 23.7819 36.0259C28.3964 31.6948 29.4489 29.1446 30.4608 26.3921C26.8987 31.3709 23.2152 31.7757 21.1913 32.221C19.1674 32.6662 11.8003 31.6543 8.64298 33.3544Z" fill="url(#paint0_linear_102_5)"/>
<path d="M13.6629 22.2229C13.6107 22.3795 10.708 27.8089 9.12933 30.44C10.0199 30.0757 10.5461 30.1971 11.4366 30.0352C12.2371 29.8896 14.432 29.9947 17.9941 30.0352C21.5562 30.0757 22.9325 29.5899 24.5921 28.9423C26.7743 28.0907 29.0418 26.0817 29.7733 25.2587C31.7163 23.0729 32.7687 19.3894 33.5378 16.6368C32.1615 18.5798 30.5829 20.8871 26.616 21.9395C23.5851 22.7436 13.7034 22.1014 13.6629 22.2229Z" fill="url(#paint1_linear_102_5)"/>
<path d="M0.629979 44C-0.395474 39.6148 -0.916295 28.1649 5.20404 17.4462C11.3244 6.72751 20.5723 3.23827 24.4312 2.83349C27.2377 2.40172 33.1341 1.23054 34.2675 0C33.5793 2.71205 33.6603 4.4931 33.5793 6.27415C33.4984 8.0552 33.9436 12.184 33.2555 13.8841C32.5674 15.5842 31.4449 17.4648 29.2886 18.4986C23.3788 21.3321 20.4643 19.1868 14.9188 19.9963C16.6351 14.297 22.974 7.97424 25.8885 5.54554C18.2785 9.18859 16.5784 12.9126 12.8544 19.1868C9.87521 24.2061 3.46345 37.8203 0.629979 44Z" fill="url(#paint2_linear_102_5)"/>
<defs>
<linearGradient id="paint0_linear_102_5" x1="30.8765" y1="26.4362" x2="22.9933" y2="49.2615" gradientUnits="userSpaceOnUse">
<stop stop-color="#007858"/>
<stop offset="1" stop-color="#52DCA1"/>
</linearGradient>
<linearGradient id="paint1_linear_102_5" x1="33.8964" y1="16.6749" x2="27.0815" y2="36.3837" gradientUnits="userSpaceOnUse">
<stop stop-color="#007858"/>
<stop offset="1" stop-color="#52DCA1"/>
</linearGradient>
<linearGradient id="paint2_linear_102_5" x1="34.7709" y1="0.121434" x2="0.607166" y2="43.6357" gradientUnits="userSpaceOnUse">
<stop stop-color="#007858"/>
<stop offset="1" stop-color="#52DCA1"/>
</linearGradient>
</defs>
</svg>
