<svg width="191" height="40" viewBox="0 0 191 40" fill="none" xmlns="http://www.w3.org/2000/svg">
<path d="M121.074 21.8672H115.23L115.199 18.6484H120.105C120.97 18.6484 121.678 18.5391 122.23 18.3203C122.782 18.0911 123.194 17.763 123.465 17.3359C123.746 16.8984 123.887 16.3672 123.887 15.7422C123.887 15.0339 123.751 14.4609 123.48 14.0234C123.22 13.5859 122.808 13.2682 122.246 13.0703C121.694 12.8724 120.98 12.7734 120.105 12.7734H116.855V31.8516H112.168V9.10156H120.105C121.428 9.10156 122.611 9.22656 123.652 9.47656C124.704 9.72656 125.595 10.1068 126.324 10.6172C127.053 11.1276 127.611 11.7734 127.996 12.5547C128.381 13.3255 128.574 14.2422 128.574 15.3047C128.574 16.2422 128.361 17.1068 127.933 17.8984C127.517 18.6901 126.855 19.3359 125.949 19.8359C125.053 20.3359 123.881 20.612 122.433 20.6641L121.074 21.8672ZM120.871 31.8516H113.949L115.777 28.1953H120.871C121.694 28.1953 122.366 28.0651 122.887 27.8047C123.407 27.5339 123.793 27.1693 124.043 26.7109C124.293 26.2526 124.418 25.7266 124.418 25.1328C124.418 24.4661 124.303 23.888 124.074 23.3984C123.855 22.9089 123.501 22.5339 123.012 22.2734C122.522 22.0026 121.876 21.8672 121.074 21.8672H116.558L116.59 18.6484H122.215L123.293 19.9141C124.678 19.8932 125.793 20.138 126.637 20.6484C127.491 21.1484 128.111 21.7995 128.496 22.6016C128.892 23.4036 129.09 24.263 129.09 25.1797C129.09 26.638 128.772 27.8672 128.137 28.8672C127.501 29.8568 126.569 30.6016 125.34 31.1016C124.121 31.6016 122.631 31.8516 120.871 31.8516Z" fill="url(#paint0_linear_31_58)"/>
<path d="M121.074 21.8672H115.23L115.199 18.6484H120.105C120.97 18.6484 121.678 18.5391 122.23 18.3203C122.782 18.0911 123.194 17.763 123.465 17.3359C123.746 16.8984 123.887 16.3672 123.887 15.7422C123.887 15.0339 123.751 14.4609 123.48 14.0234C123.22 13.5859 122.808 13.2682 122.246 13.0703C121.694 12.8724 120.98 12.7734 120.105 12.7734H116.855V31.8516H112.168V9.10156H120.105C121.428 9.10156 122.611 9.22656 123.652 9.47656C124.704 9.72656 125.595 10.1068 126.324 10.6172C127.053 11.1276 127.611 11.7734 127.996 12.5547C128.381 13.3255 128.574 14.2422 128.574 15.3047C128.574 16.2422 128.361 17.1068 127.933 17.8984C127.517 18.6901 126.855 19.3359 125.949 19.8359C125.053 20.3359 123.881 20.612 122.433 20.6641L121.074 21.8672ZM120.871 31.8516H113.949L115.777 28.1953H120.871C121.694 28.1953 122.366 28.0651 122.887 27.8047C123.407 27.5339 123.793 27.1693 124.043 26.7109C124.293 26.2526 124.418 25.7266 124.418 25.1328C124.418 24.4661 124.303 23.888 124.074 23.3984C123.855 22.9089 123.501 22.5339 123.012 22.2734C122.522 22.0026 121.876 21.8672 121.074 21.8672H116.558L116.59 18.6484H122.215L123.293 19.9141C124.678 19.8932 125.793 20.138 126.637 20.6484C127.491 21.1484 128.111 21.7995 128.496 22.6016C128.892 23.4036 129.09 24.263 129.09 25.1797C129.09 26.638 128.772 27.8672 128.137 28.8672C127.501 29.8568 126.569 30.6016 125.34 31.1016C124.121 31.6016 122.631 31.8516 120.871 31.8516Z" fill="black" fill-opacity="0.2"/>
<path d="M141.449 28.0391V20.5078C141.449 19.9661 141.361 19.5026 141.183 19.1172C141.006 18.7214 140.73 18.4141 140.355 18.1953C139.991 17.9766 139.517 17.8672 138.933 17.8672C138.433 17.8672 138.001 17.9557 137.637 18.1328C137.272 18.2995 136.991 18.5443 136.793 18.8672C136.595 19.1797 136.496 19.5495 136.496 19.9766H131.996C131.996 19.2578 132.163 18.5755 132.496 17.9297C132.829 17.2839 133.314 16.7161 133.949 16.2266C134.585 15.7266 135.34 15.3359 136.215 15.0547C137.1 14.7734 138.09 14.6328 139.183 14.6328C140.496 14.6328 141.663 14.8516 142.683 15.2891C143.704 15.7266 144.506 16.3828 145.09 17.2578C145.683 18.1328 145.98 19.2266 145.98 20.5391V27.7734C145.98 28.7005 146.038 29.4609 146.152 30.0547C146.267 30.638 146.433 31.1484 146.652 31.5859V31.8516H142.105C141.887 31.3932 141.72 30.8203 141.605 30.1328C141.501 29.4349 141.449 28.737 141.449 28.0391ZM142.043 21.5547L142.074 24.1016H139.558C138.965 24.1016 138.449 24.1693 138.012 24.3047C137.574 24.4401 137.215 24.6328 136.933 24.8828C136.652 25.1224 136.444 25.4036 136.308 25.7266C136.183 26.0495 136.121 26.4036 136.121 26.7891C136.121 27.1745 136.21 27.5234 136.387 27.8359C136.564 28.138 136.819 28.3776 137.152 28.5547C137.486 28.7214 137.876 28.8047 138.324 28.8047C139.001 28.8047 139.59 28.6693 140.09 28.3984C140.59 28.1276 140.975 27.7943 141.246 27.3984C141.527 27.0026 141.673 26.6276 141.683 26.2734L142.871 28.1797C142.704 28.6068 142.475 29.0495 142.183 29.5078C141.902 29.9661 141.543 30.3984 141.105 30.8047C140.668 31.2005 140.142 31.5286 139.527 31.7891C138.913 32.0391 138.183 32.1641 137.34 32.1641C136.267 32.1641 135.293 31.9505 134.418 31.5234C133.553 31.0859 132.866 30.487 132.355 29.7266C131.855 28.9557 131.605 28.0807 131.605 27.1016C131.605 26.2161 131.772 25.4297 132.105 24.7422C132.439 24.0547 132.928 23.4766 133.574 23.0078C134.23 22.5286 135.048 22.1693 136.027 21.9297C137.006 21.6797 138.142 21.5547 139.433 21.5547H142.043Z" fill="url(#paint1_linear_31_58)"/>
<path d="M141.449 28.0391V20.5078C141.449 19.9661 141.361 19.5026 141.183 19.1172C141.006 18.7214 140.73 18.4141 140.355 18.1953C139.991 17.9766 139.517 17.8672 138.933 17.8672C138.433 17.8672 138.001 17.9557 137.637 18.1328C137.272 18.2995 136.991 18.5443 136.793 18.8672C136.595 19.1797 136.496 19.5495 136.496 19.9766H131.996C131.996 19.2578 132.163 18.5755 132.496 17.9297C132.829 17.2839 133.314 16.7161 133.949 16.2266C134.585 15.7266 135.34 15.3359 136.215 15.0547C137.1 14.7734 138.09 14.6328 139.183 14.6328C140.496 14.6328 141.663 14.8516 142.683 15.2891C143.704 15.7266 144.506 16.3828 145.09 17.2578C145.683 18.1328 145.98 19.2266 145.98 20.5391V27.7734C145.98 28.7005 146.038 29.4609 146.152 30.0547C146.267 30.638 146.433 31.1484 146.652 31.5859V31.8516H142.105C141.887 31.3932 141.72 30.8203 141.605 30.1328C141.501 29.4349 141.449 28.737 141.449 28.0391ZM142.043 21.5547L142.074 24.1016H139.558C138.965 24.1016 138.449 24.1693 138.012 24.3047C137.574 24.4401 137.215 24.6328 136.933 24.8828C136.652 25.1224 136.444 25.4036 136.308 25.7266C136.183 26.0495 136.121 26.4036 136.121 26.7891C136.121 27.1745 136.21 27.5234 136.387 27.8359C136.564 28.138 136.819 28.3776 137.152 28.5547C137.486 28.7214 137.876 28.8047 138.324 28.8047C139.001 28.8047 139.59 28.6693 140.09 28.3984C140.59 28.1276 140.975 27.7943 141.246 27.3984C141.527 27.0026 141.673 26.6276 141.683 26.2734L142.871 28.1797C142.704 28.6068 142.475 29.0495 142.183 29.5078C141.902 29.9661 141.543 30.3984 141.105 30.8047C140.668 31.2005 140.142 31.5286 139.527 31.7891C138.913 32.0391 138.183 32.1641 137.34 32.1641C136.267 32.1641 135.293 31.9505 134.418 31.5234C133.553 31.0859 132.866 30.487 132.355 29.7266C131.855 28.9557 131.605 28.0807 131.605 27.1016C131.605 26.2161 131.772 25.4297 132.105 24.7422C132.439 24.0547 132.928 23.4766 133.574 23.0078C134.23 22.5286 135.048 22.1693 136.027 21.9297C137.006 21.6797 138.142 21.5547 139.433 21.5547H142.043Z" fill="black" fill-opacity="0.2"/>
<path d="M156.433 28.6484C156.986 28.6484 157.475 28.5443 157.902 28.3359C158.329 28.1172 158.663 27.8151 158.902 27.4297C159.152 27.0339 159.282 26.5703 159.293 26.0391H163.527C163.517 27.2266 163.199 28.2839 162.574 29.2109C161.949 30.1276 161.111 30.8516 160.058 31.3828C159.006 31.9036 157.829 32.1641 156.527 32.1641C155.215 32.1641 154.069 31.9453 153.09 31.5078C152.121 31.0703 151.314 30.4661 150.668 29.6953C150.022 28.9141 149.538 28.0078 149.215 26.9766C148.892 25.9349 148.73 24.8203 148.73 23.6328V23.1797C148.73 21.9818 148.892 20.8672 149.215 19.8359C149.538 18.7943 150.022 17.888 150.668 17.1172C151.314 16.3359 152.121 15.7266 153.09 15.2891C154.058 14.8516 155.194 14.6328 156.496 14.6328C157.881 14.6328 159.095 14.8984 160.137 15.4297C161.189 15.9609 162.012 16.7214 162.605 17.7109C163.21 18.6901 163.517 19.8516 163.527 21.1953H159.293C159.282 20.6328 159.163 20.1224 158.933 19.6641C158.715 19.2057 158.392 18.8411 157.965 18.5703C157.548 18.2891 157.032 18.1484 156.418 18.1484C155.762 18.1484 155.225 18.2891 154.808 18.5703C154.392 18.8411 154.069 19.2161 153.84 19.6953C153.611 20.1641 153.449 20.7005 153.355 21.3047C153.272 21.8984 153.23 22.5234 153.23 23.1797V23.6328C153.23 24.2891 153.272 24.9193 153.355 25.5234C153.439 26.1276 153.595 26.6641 153.824 27.1328C154.064 27.6016 154.392 27.9714 154.808 28.2422C155.225 28.513 155.767 28.6484 156.433 28.6484Z" fill="url(#paint2_linear_31_58)"/>
<path d="M156.433 28.6484C156.986 28.6484 157.475 28.5443 157.902 28.3359C158.329 28.1172 158.663 27.8151 158.902 27.4297C159.152 27.0339 159.282 26.5703 159.293 26.0391H163.527C163.517 27.2266 163.199 28.2839 162.574 29.2109C161.949 30.1276 161.111 30.8516 160.058 31.3828C159.006 31.9036 157.829 32.1641 156.527 32.1641C155.215 32.1641 154.069 31.9453 153.09 31.5078C152.121 31.0703 151.314 30.4661 150.668 29.6953C150.022 28.9141 149.538 28.0078 149.215 26.9766C148.892 25.9349 148.73 24.8203 148.73 23.6328V23.1797C148.73 21.9818 148.892 20.8672 149.215 19.8359C149.538 18.7943 150.022 17.888 150.668 17.1172C151.314 16.3359 152.121 15.7266 153.09 15.2891C154.058 14.8516 155.194 14.6328 156.496 14.6328C157.881 14.6328 159.095 14.8984 160.137 15.4297C161.189 15.9609 162.012 16.7214 162.605 17.7109C163.21 18.6901 163.517 19.8516 163.527 21.1953H159.293C159.282 20.6328 159.163 20.1224 158.933 19.6641C158.715 19.2057 158.392 18.8411 157.965 18.5703C157.548 18.2891 157.032 18.1484 156.418 18.1484C155.762 18.1484 155.225 18.2891 154.808 18.5703C154.392 18.8411 154.069 19.2161 153.84 19.6953C153.611 20.1641 153.449 20.7005 153.355 21.3047C153.272 21.8984 153.23 22.5234 153.23 23.1797V23.6328C153.23 24.2891 153.272 24.9193 153.355 25.5234C153.439 26.1276 153.595 26.6641 153.824 27.1328C154.064 27.6016 154.392 27.9714 154.808 28.2422C155.225 28.513 155.767 28.6484 156.433 28.6484Z" fill="black" fill-opacity="0.2"/>
<path d="M170.637 7.83594V31.8516H166.137V7.83594H170.637ZM181.293 14.9453L173.949 23.3203L170.012 27.3047L168.371 24.0547L171.496 20.0859L175.887 14.9453H181.293ZM176.621 31.8516L171.621 24.0391L174.73 21.3203L181.808 31.8516H176.621Z" fill="url(#paint3_linear_31_58)"/>
<path d="M170.637 7.83594V31.8516H166.137V7.83594H170.637ZM181.293 14.9453L173.949 23.3203L170.012 27.3047L168.371 24.0547L171.496 20.0859L175.887 14.9453H181.293ZM176.621 31.8516L171.621 24.0391L174.73 21.3203L181.808 31.8516H176.621Z" fill="black" fill-opacity="0.2"/>
<path d="M47.8397 9.09375V31.8438H43.1522V9.09375H47.8397ZM56.9022 18.8125V22.4688H46.5585V18.8125H56.9022ZM57.996 9.09375V12.7656H46.5585V9.09375H57.996Z" fill="black"/>
<path d="M67.871 32.1562C66.5585 32.1562 65.3814 31.9479 64.3397 31.5312C63.2981 31.1042 62.4126 30.5156 61.6835 29.7656C60.9647 29.0156 60.4126 28.1458 60.0272 27.1562C59.6418 26.1562 59.4491 25.0938 59.4491 23.9688V23.3438C59.4491 22.0625 59.6314 20.8906 59.996 19.8281C60.3606 18.7656 60.8814 17.8438 61.5585 17.0625C62.246 16.2812 63.0793 15.6823 64.0585 15.2656C65.0376 14.8385 66.1418 14.625 67.371 14.625C68.5689 14.625 69.6314 14.8229 70.5585 15.2188C71.4856 15.6146 72.2616 16.1771 72.8866 16.9062C73.522 17.6354 74.0012 18.5104 74.3241 19.5312C74.647 20.5417 74.8085 21.6667 74.8085 22.9062V24.7812H61.371V21.7812H70.3866V21.4375C70.3866 20.8125 70.272 20.2552 70.0428 19.7656C69.8241 19.2656 69.4908 18.8698 69.0428 18.5781C68.5949 18.2865 68.022 18.1406 67.3241 18.1406C66.7303 18.1406 66.2199 18.2708 65.7928 18.5312C65.3658 18.7917 65.0168 19.1562 64.746 19.625C64.4856 20.0938 64.2876 20.6458 64.1522 21.2812C64.0272 21.9062 63.9647 22.5938 63.9647 23.3438V23.9688C63.9647 24.6458 64.0585 25.2708 64.246 25.8438C64.4439 26.4167 64.7199 26.9115 65.0741 27.3281C65.4387 27.7448 65.8762 28.0677 66.3866 28.2969C66.9074 28.526 67.496 28.6406 68.1522 28.6406C68.9647 28.6406 69.7199 28.4844 70.4178 28.1719C71.1262 27.849 71.7356 27.3646 72.246 26.7188L74.4335 29.0938C74.0793 29.6042 73.5949 30.0938 72.9803 30.5625C72.3762 31.0312 71.647 31.4167 70.7928 31.7188C69.9387 32.0104 68.9647 32.1562 67.871 32.1562Z" fill="black"/>
<path d="M85.1522 32.1562C83.8397 32.1562 82.6626 31.9479 81.621 31.5312C80.5793 31.1042 79.6939 30.5156 78.9647 29.7656C78.246 29.0156 77.6939 28.1458 77.3085 27.1562C76.9231 26.1562 76.7303 25.0938 76.7303 23.9688V23.3438C76.7303 22.0625 76.9126 20.8906 77.2772 19.8281C77.6418 18.7656 78.1626 17.8438 78.8397 17.0625C79.5272 16.2812 80.3606 15.6823 81.3397 15.2656C82.3189 14.8385 83.4231 14.625 84.6522 14.625C85.8501 14.625 86.9126 14.8229 87.8397 15.2188C88.7668 15.6146 89.5428 16.1771 90.1678 16.9062C90.8033 17.6354 91.2824 18.5104 91.6053 19.5312C91.9283 20.5417 92.0897 21.6667 92.0897 22.9062V24.7812H78.6522V21.7812H87.6678V21.4375C87.6678 20.8125 87.5533 20.2552 87.3241 19.7656C87.1053 19.2656 86.772 18.8698 86.3241 18.5781C85.8762 18.2865 85.3033 18.1406 84.6053 18.1406C84.0116 18.1406 83.5012 18.2708 83.0741 18.5312C82.647 18.7917 82.2981 19.1562 82.0272 19.625C81.7668 20.0938 81.5689 20.6458 81.4335 21.2812C81.3085 21.9062 81.246 22.5938 81.246 23.3438V23.9688C81.246 24.6458 81.3397 25.2708 81.5272 25.8438C81.7251 26.4167 82.0012 26.9115 82.3553 27.3281C82.7199 27.7448 83.1574 28.0677 83.6678 28.2969C84.1887 28.526 84.7772 28.6406 85.4335 28.6406C86.246 28.6406 87.0012 28.4844 87.6991 28.1719C88.4074 27.849 89.0168 27.3646 89.5272 26.7188L91.7147 29.0938C91.3606 29.6042 90.8762 30.0938 90.2616 30.5625C89.6574 31.0312 88.9283 31.4167 88.0741 31.7188C87.2199 32.0104 86.246 32.1562 85.1522 32.1562Z" fill="black"/>
<path d="M104.637 28.1562V7.84375H109.168V31.8438H105.09L104.637 28.1562ZM93.9491 23.5938V23.2656C93.9491 21.974 94.0949 20.8021 94.3866 19.75C94.6783 18.6875 95.1053 17.776 95.6678 17.0156C96.2303 16.2552 96.9231 15.6667 97.746 15.25C98.5689 14.8333 99.5064 14.625 100.558 14.625C101.548 14.625 102.413 14.8333 103.152 15.25C103.902 15.6667 104.538 16.2604 105.058 17.0312C105.59 17.7917 106.017 18.6927 106.34 19.7344C106.663 20.7656 106.897 21.8958 107.043 23.125V23.8438C106.897 25.0208 106.663 26.1146 106.34 27.125C106.017 28.1354 105.59 29.0208 105.058 29.7812C104.538 30.5312 103.902 31.1146 103.152 31.5312C102.402 31.9479 101.527 32.1562 100.527 32.1562C99.4751 32.1562 98.5376 31.9427 97.7147 31.5156C96.9022 31.0885 96.2147 30.4896 95.6522 29.7188C95.1001 28.9479 94.6783 28.0417 94.3866 27C94.0949 25.9583 93.9491 24.8229 93.9491 23.5938ZM98.4491 23.2656V23.5938C98.4491 24.2917 98.5012 24.9427 98.6053 25.5469C98.7199 26.151 98.9022 26.6875 99.1522 27.1562C99.4126 27.6146 99.746 27.974 100.152 28.2344C100.569 28.4844 101.074 28.6094 101.668 28.6094C102.439 28.6094 103.074 28.4375 103.574 28.0938C104.074 27.7396 104.454 27.2552 104.715 26.6406C104.986 26.026 105.142 25.3177 105.183 24.5156V22.4688C105.152 21.8125 105.058 21.224 104.902 20.7031C104.756 20.1719 104.538 19.7188 104.246 19.3438C103.965 18.9688 103.611 18.6771 103.183 18.4688C102.767 18.2604 102.272 18.1562 101.699 18.1562C101.116 18.1562 100.616 18.2917 100.199 18.5625C99.7824 18.8229 99.4439 19.1823 99.1835 19.6406C98.9335 20.099 98.746 20.6406 98.621 21.2656C98.5064 21.8802 98.4491 22.5469 98.4491 23.2656Z" fill="black"/>
<path d="M7.85728 30.3221C5.56105 31.5585 2.97534 36.2344 1.96951 38.4178C2.11671 38.7121 9.18202 38.381 12.6411 37.4242C16.1001 36.4674 18.9015 35.3023 21.6199 32.7508C25.815 28.8133 26.7717 26.495 27.6917 23.9927C24.4534 28.519 21.1047 28.8869 19.2648 29.2917C17.4249 29.6965 10.7276 28.7765 7.85728 30.3221Z" fill="url(#paint4_linear_31_58)"/>
<path d="M12.4208 20.2025C12.3734 20.3449 9.73455 25.2807 8.29941 27.6726C9.10898 27.3414 9.58736 27.4518 10.3969 27.3046C11.1246 27.1723 13.12 27.2678 16.3583 27.3046C19.5966 27.3414 20.8477 26.8999 22.3564 26.3111C24.3403 25.5369 26.4016 23.7106 27.0667 22.9624C28.833 20.9753 29.7897 17.6266 30.4889 15.1243C29.2378 16.8907 27.8026 18.9882 24.1964 19.9449C21.4411 20.6759 12.4576 20.0921 12.4208 20.2025Z" fill="url(#paint5_linear_31_58)"/>
<path d="M0.572708 40C-0.359521 36.0135 -0.832996 25.6044 4.73094 15.8602C10.2949 6.11592 18.7021 2.94388 22.2102 2.5759C24.7616 2.18338 30.1219 1.11868 31.1523 0C30.5267 2.4655 30.6003 4.08464 30.5267 5.70377C30.4531 7.32291 30.8579 11.0764 30.2323 12.6219C29.6067 14.1674 28.5863 15.8771 26.626 16.8169C21.2534 19.3928 18.604 17.4425 13.5626 18.1785C15.1228 12.9972 20.8855 7.24931 23.535 5.0414C16.6168 8.35327 15.0713 11.7387 11.6858 17.4425C8.97746 22.0055 3.14859 34.3821 0.572708 40Z" fill="url(#paint6_linear_31_58)"/>
<defs>
<linearGradient id="paint0_linear_31_58" x1="182.059" y1="4.85156" x2="140.104" y2="18.3719" gradientUnits="userSpaceOnUse">
<stop stop-color="#007858"/>
<stop offset="1" stop-color="#52DCA1"/>
</linearGradient>
<linearGradient id="paint1_linear_31_58" x1="182.059" y1="4.85156" x2="140.104" y2="18.3719" gradientUnits="userSpaceOnUse">
<stop stop-color="#007858"/>
<stop offset="1" stop-color="#52DCA1"/>
</linearGradient>
<linearGradient id="paint2_linear_31_58" x1="182.059" y1="4.85156" x2="140.104" y2="18.3719" gradientUnits="userSpaceOnUse">
<stop stop-color="#007858"/>
<stop offset="1" stop-color="#52DCA1"/>
</linearGradient>
<linearGradient id="paint3_linear_31_58" x1="182.059" y1="4.85156" x2="140.104" y2="18.3719" gradientUnits="userSpaceOnUse">
<stop stop-color="#007858"/>
<stop offset="1" stop-color="#52DCA1"/>
</linearGradient>
<linearGradient id="paint4_linear_31_58" x1="28.0696" y1="24.0328" x2="20.903" y2="44.7831" gradientUnits="userSpaceOnUse">
<stop stop-color="#007858"/>
<stop offset="1" stop-color="#52DCA1"/>
</linearGradient>
<linearGradient id="paint5_linear_31_58" x1="30.8149" y1="15.159" x2="24.6196" y2="33.076" gradientUnits="userSpaceOnUse">
<stop stop-color="#007858"/>
<stop offset="1" stop-color="#52DCA1"/>
</linearGradient>
<linearGradient id="paint6_linear_31_58" x1="31.6099" y1="0.110395" x2="0.551972" y2="39.6688" gradientUnits="userSpaceOnUse">
<stop stop-color="#007858"/>
<stop offset="1" stop-color="#52DCA1"/>
</linearGradient>
</defs>
</svg>
